solid 3
    facet normal 0.0 0.0 1.0
        outer loop
            vertex -12 6 0
            vertex 12 -6 0
            vertex 12 6 0
        endloop
    endfacet
    facet normal 0.0 0.0 -1.0
        outer loop
            vertex -12 6 0
            vertex 12 -6 0
            vertex -12 -6 0
        endloop
    endfacet
endsolid
solid 3
    facet normal 0.0 1.0 0.0
        outer loop
            vertex 12 -6 0
            vertex -12 -6 1
            vertex 12 -6 1
        endloop
    endfacet
    facet normal 0.0 1.0 0.0
        outer loop
            vertex -12 -6 1
            vertex 12 -6 0
            vertex -12 -6 0
        endloop
    endfacet
endsolid
solid 3
    facet normal 0.0 -1.0 0.0
        outer loop
            vertex -12 6 1
            vertex 12 6 0
            vertex 12 6 1
        endloop
    endfacet
    facet normal 0.0 -1.0 0.0
        outer loop
            vertex 12 6 0
            vertex -12 6 1
            vertex -12 6 0
        endloop
    endfacet
endsolid
solid 3
    facet normal -1.0 0.0 0.0
        outer loop
            vertex 12 6 0
            vertex 12 -6 0
            vertex 12 6 1
        endloop
    endfacet
    facet normal -1.0 0.0 0.0
        outer loop
            vertex 12 -6 1
            vertex 12 6 1
            vertex 12 -6 0
        endloop
    endfacet
endsolid
solid 3
    facet normal 1.0 0.0 0.0
        outer loop
            vertex -12 -6 0
            vertex -12 6 0
            vertex -12 6 1
        endloop
    endfacet
    facet normal 1.0 0.0 0.0
        outer loop
            vertex -12 6 1
            vertex -12 -6 1
            vertex -12 -6 0
        endloop
    endfacet
endsolid
